<svg width="32" height="32" viewBox="0 0 32 32" xmlns="http://www.w3.org/2000/svg">
  <defs>
    <linearGradient id="brainGradient" x1="0%" y1="0%" x2="100%" y2="100%">
      <stop offset="0%" style="stop-color:#38bdf8;stop-opacity:1" />
      <stop offset="50%" style="stop-color:#0ea5e9;stop-opacity:1" />
      <stop offset="100%" style="stop-color:#0284c7;stop-opacity:1" />
    </linearGradient>
    <linearGradient id="codeGradient" x1="0%" y1="0%" x2="100%" y2="100%">
      <stop offset="0%" style="stop-color:#B8E6FF;stop-opacity:1" />
      <stop offset="100%" style="stop-color:#7dd3fc;stop-opacity:1" />
    </linearGradient>
  </defs>
  
  <!-- Background -->
  <rect width="32" height="32" rx="6" fill="#0f172a"/>
  
  <!-- AI Brain Network -->
  <g fill="url(#brainGradient)" stroke="url(#brainGradient)" stroke-width="0.5">
    <!-- Neural nodes -->
    <circle cx="8" cy="10" r="1.5"/>
    <circle cx="16" cy="8" r="1.5"/>
    <circle cx="24" cy="10" r="1.5"/>
    <circle cx="12" cy="16" r="1.5"/>
    <circle cx="20" cy="16" r="1.5"/>
    <circle cx="16" cy="22" r="1.5"/>
    
    <!-- Connections -->
    <line x1="8" y1="10" x2="16" y2="8" stroke-width="0.8" opacity="0.8"/>
    <line x1="16" y1="8" x2="24" y2="10" stroke-width="0.8" opacity="0.8"/>
    <line x1="8" y1="10" x2="12" y2="16" stroke-width="0.8" opacity="0.8"/>
    <line x1="24" y1="10" x2="20" y2="16" stroke-width="0.8" opacity="0.8"/>
    <line x1="12" y1="16" x2="16" y2="22" stroke-width="0.8" opacity="0.8"/>
    <line x1="20" y1="16" x2="16" y2="22" stroke-width="0.8" opacity="0.8"/>
    <line x1="12" y1="16" x2="20" y2="16" stroke-width="0.8" opacity="0.8"/>
  </g>
  
  <!-- Code symbols -->
  <g fill="url(#codeGradient)" font-family="monospace" font-size="8" font-weight="bold">
    <text x="4" y="28" opacity="0.9">&lt;</text>
    <text x="14" y="28" opacity="0.9">/</text>
    <text x="20" y="28" opacity="0.9">&gt;</text>
  </g>
  
  <!-- Glow effect -->
  <circle cx="16" cy="16" r="12" fill="none" stroke="url(#brainGradient)" stroke-width="0.5" opacity="0.3"/>
</svg> 